<svg xmlns="http://www.w3.org/2000/svg" width="526.648" height="552.46" viewBox="0 0 526.648 552.46">
  <defs>
    <style>
      .cls-1 {
        isolation: isolate;
      }

      .cls-2 {
        fill: #35bfa0;
      }
    </style>
  </defs>
  <g id="blob-shape_6_" data-name="blob-shape (6)" class="cls-1">
    <path id="Path_1953" data-name="Path 1953" class="cls-2" d="M261.475-168.383c48.323,28.922,77.261,92.55,72.625,150.25-4.776,57.7-42.985,109.47-64.618,163.554-21.633,53.94-26.69,110.048-55.768,152.564-29.219,42.66-82.6,71.582-130.079,63.195S-5.425,307.094-56.979,272.1c-51.694-35.14-113.5-59.435-130.079-101.372-16.716-41.937,11.8-101.516,36.1-157.625S-106.566-95.5-69.2-128.037c37.366-32.682,92.151-45.118,153.4-54.373C145.444-191.521,213.152-197.305,261.475-168.383Z" transform="translate(192.063 189.832)"/>
  </g>
</svg>